PathFileType	4	(X/Y/Z)	s07c0203.trc
DataRate	CameraRate	NumFrames	NumMarkers	Units	OrigDataRate	OrigDataStartFrame	OrigNumFrames
200	200	6	48	mm	200	750	2000
Frame#	Time	racr			lacr			c7			jug			rlel			rdr			llel			ldr			s2			lic			ric			lasi			rasi			rpsi			lpsi			rgt			lgt			rth1			rth2			rth3			rth4			rlfc			rmfc			rsh1			rsh2			rsh3			rsh4			rlmal			rcal			rtoe			rmt5			lth1			lth2			lth4			lth3			llfc			lmfc			lsh1			lsh2			lsh3			lsh4			llmal			lcal			ltoe			lmt5			SBIKE			LBIKE			RBIKE			
		X1	Y1	Z1	X2	Y2	Z2	X3	Y3	Z3	X4	Y4	Z4	X5	Y5	Z5	X6	Y6	Z6	X7	Y7	Z7	X8	Y8	Z8	X9	Y9	Z9	X10	Y10	Z10	X11	Y11	Z11	X12	Y12	Z12	X13	Y13	Z13	X14	Y14	Z14	X15	Y15	Z15	X16	Y16	Z16	X17	Y17	Z17	X18	Y18	Z18	X19	Y19	Z19	X20	Y20	Z20	X21	Y21	Z21	X22	Y22	Z22	X23	Y23	Z23	X24	Y24	Z24	X25	Y25	Z25	X26	Y26	Z26	X27	Y27	Z27	X28	Y28	Z28	X29	Y29	Z29	X30	Y30	Z30	X31	Y31	Z31	X32	Y32	Z32	X33	Y33	Z33	X34	Y34	Z34	X35	Y35	Z35	X36	Y36	Z36	X37	Y37	Z37	X38	Y38	Z38	X39	Y39	Z39	X40	Y40	Z40	X41	Y41	Z41	X42	Y42	Z42	X43	Y43	Z43	X44	Y44	Z44	X45	Y45	Z45	X46	Y46	Z46	X47	Y47	Z47	X48	Y48	Z48	
750	3.7500	469.880994	1404.799485	-81.898780	480.676630	1398.975681	-369.197089	449.994966	1456.976198	-228.192918	392.071114	1311.202250	-234.408251	446.412927	1074.699860	53.196000	690.766936	949.312298	-61.990378	469.272917	1108.868256	-562.220300	689.037540	934.105003	-453.776722	-113.488558	1198.427474	-258.631196	36.766792	1263.923265	-404.778813	43.660054	1239.987307	-108.086667	69.841292	1185.579839	-382.889583	74.001624	1198.050853	-131.834614	-87.869530	1238.393729	-207.576348	-80.417173	1251.549060	-315.201388	20.038327	1126.676810	-69.583138	-12.849521	1100.021737	-431.434703	169.810031	1076.821851	-81.094739	255.069522	1061.839080	-97.217318	324.066108	1010.828378	-99.000761	265.066304	1091.170651	-117.036966	427.346452	926.523195	-138.307497	410.147446	909.423918	-243.870707	335.725571	825.736385	-108.925609	292.076447	749.348697	-115.988499	218.044968	703.815671	-104.758832	303.680439	736.560760	-154.040588	120.170159	611.928778	-93.552332	49.595284	639.062537	-123.837705	186.945862	380.579463	-130.202805	123.221344	435.181414	-60.199214	44.898100	986.096596	-440.184099	108.939818	925.468182	-444.658615	140.190819	944.403452	-440.550699	134.932162	840.777068	-436.702550	226.002515	691.831973	-404.894292	215.681777	672.806527	-312.955714	192.836471	548.556249	-427.166670	200.583034	465.526826	-406.222744	165.056078	381.864296	-410.774026	203.231125	468.958873	-363.877072	136.359652	247.358895	-403.380535	71.900802	202.733472	-369.263941	361.942897	213.149515	-364.324046	293.001119	171.231458	-423.236518	-260.834653	963.092112	-240.001806	-82.750150	78.984259	-436.850528	-82.722182	79.804649	-39.313758	
751	3.7550	467.313808	1406.756120	-78.684387	482.883469	1397.111862	-365.380523	450.232147	1456.183205	-225.914839	391.886537	1310.782532	-231.268848	445.696894	1075.402048	52.632895	691.190926	949.838702	-61.653899	469.678328	1109.338862	-562.452077	689.121778	934.539874	-453.777240	-112.811917	1198.195177	-261.885334	38.825756	1260.790479	-404.135134	41.825112	1241.733100	-109.818279	72.213676	1183.675277	-383.483447	72.863755	1199.208606	-132.767702	-87.887917	1238.301925	-211.139735	-79.072039	1250.834265	-318.734479	18.810238	1129.336566	-70.498734	-11.077183	1098.232286	-432.361440	169.158877	1081.936253	-81.548628	254.781559	1068.548339	-97.386852	324.668957	1018.576756	-99.133668	264.315878	1097.940099	-117.489212	430.031775	936.133679	-137.745542	413.624853	918.809369	-243.468698	339.734444	834.847351	-108.740266	296.307093	758.373216	-116.236792	222.644871	712.362572	-105.107558	308.331838	745.396201	-154.053785	124.682377	619.229904	-94.047564	53.381462	644.248666	-123.865126	201.234856	393.221518	-129.059870	132.818578	442.412070	-60.614870	44.634523	984.135989	-441.130819	107.539227	922.300634	-445.559159	139.096910	940.715514	-441.044892	131.875441	837.085857	-437.712190	220.418037	686.877149	-404.819298	209.647612	667.797614	-312.986714	186.245653	543.845638	-426.887145	193.679293	460.863156	-406.158433	157.920463	377.589187	-410.683947	196.380905	464.276839	-363.858247	128.142075	243.024514	-403.263398	63.347700	199.291865	-369.193289	353.526103	206.104911	-364.000730	276.354110	170.933398	-429.219396	-260.868752	963.091481	-240.040837	-82.764334	78.976415	-436.863736	-82.744415	79.814819	-39.311497	
752	3.7600	464.867621	1408.520363	-75.729739	484.962196	1395.058348	-361.748703	450.570335	1455.526559	-223.809819	391.758832	1310.199341	-228.193146	445.123231	1076.073939	52.018161	691.540627	950.184177	-61.337870	470.044931	1109.642525	-562.703412	689.294492	935.075563	-453.865204	-112.351686	1198.107990	-264.908493	41.698057	1258.749320	-406.097416	39.899778	1243.607241	-111.581572	74.401962	1181.930627	-384.126594	71.669769	1200.243705	-133.624104	-87.931310	1238.884058	-215.530350	-77.875572	1250.234822	-322.514547	17.357650	1131.991131	-71.346982	-9.420072	1096.685026	-433.300289	168.378533	1087.303662	-81.390677	254.162930	1075.182233	-97.376175	324.713879	1027.306855	-97.525386	263.293933	1104.576697	-117.834237	432.265460	945.455921	-137.057626	416.687356	928.018862	-243.010524	343.408846	843.761069	-108.516192	300.490698	766.831378	-116.116466	227.188762	720.394387	-105.204593	312.818462	753.658647	-153.980260	129.053590	625.845269	-94.324020	57.231670	648.532343	-123.866658	211.570132	401.618810	-129.557778	142.404222	448.944781	-61.040584	44.376823	982.483747	-442.026574	106.265224	919.630923	-446.450103	138.132966	937.404817	-441.485370	129.157378	833.998363	-438.843200	215.342911	682.533510	-404.826617	204.142300	663.668819	-312.938493	180.454026	539.865325	-426.883770	187.047065	456.821800	-406.010970	150.647774	373.853994	-410.630909	189.649266	460.262040	-363.679299	119.824352	239.515422	-403.246262	54.546370	196.768866	-369.172080	344.799952	199.594161	-363.737994	267.167514	165.501110	-429.058307	-260.898202	963.083520	-240.068198	-82.765677	78.970167	-436.865972	-82.683228	79.694578	-39.357044	
753	3.7650	462.555191	1410.123668	-73.088282	486.883593	1392.998865	-358.349850	450.855688	1454.803228	-221.757669	391.692818	1309.523368	-225.130644	444.695196	1076.895689	51.608584	691.792521	950.305938	-61.097875	470.414745	1109.855443	-562.971848	689.440886	935.652525	-453.766917	-112.100661	1197.831092	-267.637165	39.818965	1252.275377	-394.762750	37.814875	1245.158458	-113.090837	76.202033	1180.185116	-384.523885	70.292375	1201.298818	-134.407086	-88.116049	1238.797980	-218.761956	-76.687883	1249.400497	-325.519844	15.744438	1134.566678	-72.161964	-7.953074	1095.277917	-434.089695	167.219247	1092.478647	-81.224521	253.275156	1081.462997	-97.228086	324.895152	1035.366016	-97.541976	261.868129	1111.122906	-117.889116	433.790867	954.375389	-136.863045	419.487144	936.622006	-242.974051	346.733937	852.226710	-108.152180	304.480129	774.833824	-115.776958	231.579267	727.841748	-105.145657	317.343211	762.008694	-153.214976	133.596242	631.679472	-94.382071	61.279216	652.005907	-123.731785	222.898642	409.608189	-129.964637	152.128837	454.777688	-61.346628	44.140054	981.096092	-442.817610	105.162647	917.349597	-447.357632	137.293507	934.706301	-441.864356	126.758525	831.299410	-439.839568	210.799654	678.813597	-404.894769	198.393977	660.377953	-312.978898	174.999355	536.753101	-426.857050	180.617631	453.609383	-405.861474	143.849303	370.796254	-410.301209	183.175639	456.960925	-363.518849	111.395467	236.903696	-403.215562	45.620557	195.017597	-369.059900	335.842443	193.610077	-363.514415	257.767292	160.733140	-428.735695	-260.930716	963.074909	-240.068686	-82.783846	78.973409	-436.870677	-82.746801	79.805533	-39.313136	
754	3.7700	460.454980	1411.526068	-70.666388	488.787472	1390.773440	-355.153171	451.097283	1454.130450	-219.580619	391.726489	1308.987976	-222.195864	444.314852	1077.843580	51.351276	691.964130	950.112275	-61.153267	470.700254	1109.794645	-563.465708	689.730341	936.413174	-453.862560	-112.052247	1197.705313	-270.144365	42.133071	1250.385623	-396.326737	35.750942	1246.684463	-114.545069	77.802912	1178.659042	-384.999673	68.862664	1202.265088	-135.175247	-88.884699	1238.571683	-220.830900	-75.785263	1248.679991	-328.470768	14.172864	1137.170090	-72.936806	-6.801609	1093.883140	-434.804872	165.849589	1097.259702	-81.478392	252.037525	1087.696502	-97.020014	324.320066	1042.729937	-97.193920	260.302706	1117.291665	-118.240765	436.070915	963.737521	-136.171686	421.597968	945.194516	-242.591928	349.658942	860.264965	-107.679000	308.260031	782.286573	-115.291045	235.822313	734.638112	-104.882924	321.564314	769.462585	-152.471955	139.172716	636.310428	-93.829973	65.576789	654.620440	-123.488324	233.934356	416.467841	-130.873498	162.213861	459.916538	-61.473499	43.975866	979.806637	-443.448991	104.198758	915.381096	-448.287872	136.508464	932.361359	-442.292892	124.768724	829.054909	-440.775874	207.407247	675.649977	-404.837722	194.177903	658.067214	-312.375732	169.739862	534.172388	-426.711587	174.482298	450.992635	-405.666084	136.412334	368.726747	-410.487992	176.990639	454.413982	-363.103405	102.865835	235.131801	-403.087481	36.579074	194.269948	-368.939619	326.691786	187.982523	-363.291585	240.098788	149.313164	-419.791438	-261.004088	963.032491	-240.031609	-82.793245	78.964740	-436.874678	-82.751440	79.781037	-39.327582	
755	3.7750	458.583228	1412.722406	-68.504173	490.721501	1388.225063	-352.210648	451.253719	1453.401292	-217.451242	392.001463	1308.305795	-219.242550	444.217263	1078.438447	51.168171	691.970455	949.713807	-61.415200	471.092507	1109.771799	-563.911354	689.754714	936.485811	-453.535376	-112.095356	1197.573327	-272.649646	44.072070	1248.572399	-397.607881	34.273493	1247.711022	-117.323999	79.120189	1177.255411	-385.388539	67.299449	1203.336405	-135.850422	-89.418379	1239.096734	-223.947044	-75.165056	1247.837782	-330.706706	12.132046	1139.620184	-73.637350	-5.845622	1092.594738	-435.391518	164.132667	1101.774777	-81.484668	250.517833	1093.519941	-97.148076	323.512806	1049.524831	-96.333735	258.273441	1123.046323	-118.448383	436.886939	972.288396	-135.508796	423.053114	953.229914	-242.111402	352.182474	867.602353	-106.990057	311.913874	788.985776	-114.614625	239.965024	740.520994	-104.475181	325.457015	776.355856	-151.859567	144.723677	640.007930	-93.171173	70.151962	656.329701	-123.041242	245.625837	423.314629	-131.192319	172.586965	464.472335	-61.629538	43.744639	978.804540	-443.975150	103.460183	913.814486	-448.974202	135.874106	930.506945	-442.667134	123.176999	827.227361	-441.623664	204.626268	673.374797	-404.847315	191.435856	655.573963	-311.990001	165.262145	532.352953	-426.573746	168.858034	449.112792	-405.532608	129.980045	367.347346	-410.137322	171.513649	452.396229	-363.077935	94.240331	234.198107	-402.977401	27.399245	194.636371	-368.816504	317.336046	183.063559	-363.073155	222.161507	138.522360	-410.845067	-261.088385	962.998548	-239.970671	-82.813406	78.937968	-436.861685	-82.773297	79.792048	-39.300364	
